<?xml version="1.0" encoding="UTF-8"?>
<svg xmlns="http://www.w3.org/2000/svg" xmlns:xlink="http://www.w3.org/1999/xlink" width="900px" height="592px" viewBox="0 0 900 592" version="1.1">
<defs>
<linearGradient id="linear0" gradientUnits="userSpaceOnUse" x1="0" y1="0.5" x2="1" y2="0.5" gradientTransform="matrix(13.503906,0,0,13.511719,249.25,465.492188)">
<stop offset="0" style="stop-color:rgb(9.411765%,21.960784%,40%);stop-opacity:1;"/>
<stop offset="1" style="stop-color:rgb(10.196078%,49.803922%,75.686275%);stop-opacity:1;"/>
</linearGradient>
<linearGradient id="linear1" gradientUnits="userSpaceOnUse" x1="-0.0013" y1="0.50057" x2="1" y2="0.50057" gradientTransform="matrix(7.367187,0,0,1.207031,282.402344,474.089844)">
<stop offset="0" style="stop-color:rgb(0%,0%,0%);stop-opacity:1;"/>
<stop offset="0.99" style="stop-color:rgb(0%,0%,0%);stop-opacity:0;"/>
</linearGradient>
<linearGradient id="linear2" gradientUnits="userSpaceOnUse" x1="1.76072" y1="-5.66037" x2="3.10393" y2="-5.34629" gradientTransform="matrix(27.011719,0,0,13.1875,293.453125,449.851563)">
<stop offset="0" style="stop-color:rgb(0%,0%,0%);stop-opacity:1;"/>
<stop offset="0.99" style="stop-color:rgb(0%,0%,0%);stop-opacity:0;"/>
</linearGradient>
<filter id="alpha" filterUnits="objectBoundingBox" x="0%" y="0%" width="100%" height="100%">
  <feColorMatrix type="matrix" in="SourceGraphic" values="0 0 0 0 1 0 0 0 0 1 0 0 0 0 1 0 0 0 1 0"/>
</filter>
<mask id="mask0">
  <g filter="url(#alpha)">
<rect x="0" y="0" width="900" height="592" style="fill:rgb(0%,0%,0%);fill-opacity:0.309804;stroke:none;"/>
  </g>
</mask>
<linearGradient id="linear3" gradientUnits="userSpaceOnUse" x1="0.58928" y1="-2.57998" x2="0.52269" y2="-2.77344" gradientTransform="matrix(7.367188,0,0,78.605469,276.261719,381.976562)">
<stop offset="0" style="stop-color:rgb(0%,0%,0%);stop-opacity:1;"/>
<stop offset="0.99" style="stop-color:rgb(0%,0%,0%);stop-opacity:0;"/>
</linearGradient>
<clipPath id="clip1">
  <rect x="0" y="0" width="900" height="592"/>
</clipPath>
<g id="surface5" clip-path="url(#clip1)">
<path style=" stroke:none;fill-rule:nonzero;fill:url(#linear3);" d="M 276.53125 455.792969 C 276.351562 455.164062 276.261719 454.511719 276.261719 453.855469 L 276.261719 381.976562 L 283.558594 381.976562 L 283.558594 459.4375 C 283.488281 459.820312 283.511719 460.207031 283.628906 460.582031 C 282.503906 460.191406 281.324219 459.980469 280.136719 459.953125 C 279.289062 459.902344 278.433594 459.902344 277.585938 459.953125 L 278.109375 459.832031 C 278.429688 459.78125 276.953125 457.261719 276.535156 455.792969 Z M 276.53125 455.792969 "/>
</g>
<mask id="mask1">
  <g filter="url(#alpha)">
<rect x="0" y="0" width="900" height="592" style="fill:rgb(0%,0%,0%);fill-opacity:0.309804;stroke:none;"/>
  </g>
</mask>
<linearGradient id="linear4" gradientUnits="userSpaceOnUse" x1="1.56099" y1="-0.63273" x2="0.08109" y2="-0.76114" gradientTransform="matrix(78.199219,0,0,20.550781,244.339844,463.039062)">
<stop offset="0" style="stop-color:rgb(0%,0%,0%);stop-opacity:1;"/>
<stop offset="0.99" style="stop-color:rgb(0%,0%,0%);stop-opacity:0;"/>
</linearGradient>
<clipPath id="clip2">
  <rect x="0" y="0" width="900" height="592"/>
</clipPath>
<g id="surface8" clip-path="url(#clip2)">
<path style=" stroke:none;fill-rule:nonzero;fill:url(#linear4);" d="M 322.046875 478.757812 C 320.855469 479.402344 319.515625 479.738281 318.15625 479.734375 C 317.605469 479.734375 317.058594 479.679688 316.519531 479.578125 L 289.007812 474.164062 L 286.71875 473.71875 C 285.929688 474.308594 285.042969 474.746094 284.097656 475.015625 L 282.734375 475.402344 L 254.464844 483.589844 C 250.148438 484.828125 245.621094 482.433594 244.339844 478.234375 C 246.789062 480.449219 250.511719 480.65625 253.207031 478.726562 C 256.660156 476.398438 270.398438 472.902344 278.183594 471.042969 C 281.859375 470.183594 284.675781 467.296875 285.363281 463.671875 C 285.382812 463.460938 285.414062 463.246094 285.460938 463.039062 C 286.757812 464.40625 289.140625 465.9375 293.449219 467.242188 C 304.054688 470.421875 321.277344 472.527344 321.277344 472.527344 C 321.277344 472.527344 324.386719 475.5 322.046875 478.757812 Z M 322.046875 478.757812 "/>
</g>
<linearGradient id="linear5" gradientUnits="userSpaceOnUse" x1="2.41391" y1="-4.26052" x2="1.33142" y2="-4.12195" gradientTransform="matrix(33.097656,0,0,15.96875,246.847656,450.753906)">
<stop offset="0" style="stop-color:rgb(0%,0%,0%);stop-opacity:1;"/>
<stop offset="0.99" style="stop-color:rgb(0%,0%,0%);stop-opacity:0;"/>
</linearGradient>
<mask id="mask2">
  <g filter="url(#alpha)">
<rect x="0" y="0" width="900" height="592" style="fill:rgb(0%,0%,0%);fill-opacity:0.196078;stroke:none;"/>
  </g>
</mask>
<linearGradient id="linear6" gradientUnits="userSpaceOnUse" x1="1.0685" y1="0.22502" x2="-0.35821" y2="0.1927" gradientTransform="matrix(438.292969,0,0,206.207031,143.664062,328.066406)">
<stop offset="0" style="stop-color:rgb(0%,0%,0%);stop-opacity:1;"/>
<stop offset="1" style="stop-color:rgb(0%,0%,0%);stop-opacity:0;"/>
</linearGradient>
<clipPath id="clip3">
  <rect x="0" y="0" width="900" height="592"/>
</clipPath>
<g id="surface11" clip-path="url(#clip3)">
<path style=" stroke:none;fill-rule:nonzero;fill:url(#linear6);" d="M 150.609375 533.785156 L 165.011719 534.273438 L 165.011719 419.136719 C 165.011719 419.136719 165.738281 389.363281 193.808594 386.375 C 221.878906 383.390625 476.449219 346.5 476.449219 346.5 C 476.449219 346.5 486.539062 345.429688 492.351562 364.800781 C 498.164062 384.171875 503.820312 460.339844 503.820312 460.339844 L 581.957031 470.875 C 581.957031 470.875 584.019531 336.324219 555.804688 328.898438 C 527.585938 321.472656 158.574219 359.308594 158.574219 359.308594 C 158.574219 359.308594 131.203125 502.214844 150.609375 533.785156 Z M 150.609375 533.785156 "/>
</g>
<mask id="mask3">
  <g filter="url(#alpha)">
<rect x="0" y="0" width="900" height="592" style="fill:rgb(0%,0%,0%);fill-opacity:0.188235;stroke:none;"/>
  </g>
</mask>
<linearGradient id="linear7" gradientUnits="userSpaceOnUse" x1="0.14169" y1="-0.41335" x2="1.14168" y2="-0.41335" gradientTransform="matrix(321.335938,0,0,52.644531,214.980469,296.152344)">
<stop offset="0" style="stop-color:rgb(9.411765%,21.960784%,40%);stop-opacity:1;"/>
<stop offset="1" style="stop-color:rgb(10.196078%,49.803922%,75.686275%);stop-opacity:1;"/>
</linearGradient>
<clipPath id="clip4">
  <rect x="0" y="0" width="900" height="592"/>
</clipPath>
<g id="surface14" clip-path="url(#clip4)">
<path style=" stroke:none;fill-rule:nonzero;fill:url(#linear7);" d="M 436.402344 299.492188 C 418.277344 297.160156 400.003906 295.46875 381.738281 296.152344 C 368.011719 296.683594 354.375 298.566406 340.765625 300.441406 L 220.714844 317.027344 C 218.675781 317.308594 216.355469 317.769531 215.335938 319.539062 C 213.382812 322.917969 217.976562 326.25 221.699219 327.535156 C 261.613281 341.359375 304.261719 355.363281 345.351562 345.503906 C 364.136719 341 381.585938 331.640625 400.640625 328.390625 C 419.695312 325.136719 439.253906 328.132812 458.265625 325.066406 C 476.140625 322.1875 493.15625 314 511.273438 313.921875 C 516.828125 313.921875 522.550781 314.628906 527.820312 312.890625 C 533.089844 311.152344 537.75 305.839844 536.289062 300.546875 C 519.28125 299.960938 500.1875 296.855469 483.503906 300.226562 C 466.992188 303.554688 452.9375 299.492188 436.402344 299.492188 Z M 436.402344 299.492188 "/>
</g>
<linearGradient id="linear8" gradientUnits="userSpaceOnUse" x1="0.40386" y1="0.39515" x2="0.7143" y2="0.67977" gradientTransform="matrix(109.277344,0,0,25.789063,327.832031,308.28125)">
<stop offset="0" style="stop-color:rgb(0%,0%,0%);stop-opacity:1;"/>
<stop offset="0.99" style="stop-color:rgb(0%,0%,0%);stop-opacity:0;"/>
</linearGradient>
<linearGradient id="linear9" gradientUnits="userSpaceOnUse" x1="-0.12531" y1="0.44923" x2="0.93689" y2="0.5342" gradientTransform="matrix(108.050781,0,0,27.019531,329.058594,302.140625)">
<stop offset="0" style="stop-color:rgb(0%,0%,0%);stop-opacity:1;"/>
<stop offset="0.99" style="stop-color:rgb(0%,0%,0%);stop-opacity:0;"/>
</linearGradient>
<linearGradient id="linear10" gradientUnits="userSpaceOnUse" x1="0.53702" y1="0.42271" x2="0.43721" y2="0.80595" gradientTransform="matrix(29.132812,0,0,14.730469,298.585938,318.109375)">
<stop offset="0" style="stop-color:rgb(0%,0%,0%);stop-opacity:1;"/>
<stop offset="0.99" style="stop-color:rgb(0%,0%,0%);stop-opacity:0;"/>
</linearGradient>
<linearGradient id="linear11" gradientUnits="userSpaceOnUse" x1="1.90926" y1="-3.33246" x2="1.02154" y2="-3.35028" gradientTransform="matrix(61.394531,0,0,31.726563,35.605469,509.710937)">
<stop offset="0" style="stop-color:rgb(0%,0%,0%);stop-opacity:1;"/>
<stop offset="0.99" style="stop-color:rgb(0%,0%,0%);stop-opacity:0;"/>
</linearGradient>
<linearGradient id="linear12" gradientUnits="userSpaceOnUse" x1="1.68578" y1="-1.26252" x2="1.1153" y2="-1.26942" gradientTransform="matrix(79.808594,0,0,28.144531,27.011719,486.375)">
<stop offset="0" style="stop-color:rgb(0%,0%,0%);stop-opacity:1;"/>
<stop offset="0.99" style="stop-color:rgb(0%,0%,0%);stop-opacity:0;"/>
</linearGradient>
<linearGradient id="linear13" gradientUnits="userSpaceOnUse" x1="0.56989" y1="0.43618" x2="0.28128" y2="0.69958" gradientTransform="matrix(79.808594,0,0,14.738281,27.011719,477.777344)">
<stop offset="0" style="stop-color:rgb(0%,0%,0%);stop-opacity:1;"/>
<stop offset="0.99" style="stop-color:rgb(0%,0%,0%);stop-opacity:0;"/>
</linearGradient>
<linearGradient id="linear14" gradientUnits="userSpaceOnUse" x1="0.58095" y1="-14.73571" x2="0.57212" y2="-13.70204" gradientTransform="matrix(0.878906,0,0,23.335937,60.429687,460.582031)">
<stop offset="0" style="stop-color:rgb(0%,0%,0%);stop-opacity:1;"/>
<stop offset="0.99" style="stop-color:rgb(0%,0%,0%);stop-opacity:0;"/>
</linearGradient>
<linearGradient id="linear15" gradientUnits="userSpaceOnUse" x1="-0.0004" y1="0.49993" x2="0.99996" y2="0.49993" gradientTransform="matrix(50.308594,0,0,95.234375,272.578125,102.496094)">
<stop offset="0" style="stop-color:rgb(92.54902%,76.862745%,84.313725%);stop-opacity:1;"/>
<stop offset="0.42" style="stop-color:rgb(93.72549%,83.137255%,81.960784%);stop-opacity:1;"/>
<stop offset="1" style="stop-color:rgb(94.901961%,91.764706%,78.823529%);stop-opacity:1;"/>
</linearGradient>
<mask id="mask4">
  <g filter="url(#alpha)">
<rect x="0" y="0" width="900" height="592" style="fill:rgb(0%,0%,0%);fill-opacity:0.25098;stroke:none;"/>
  </g>
</mask>
<clipPath id="clip5">
  <rect x="0" y="0" width="900" height="592"/>
</clipPath>
<g id="surface17" clip-path="url(#clip5)">
<path style=" stroke:none;fill-rule:nonzero;fill:rgb(100%,100%,100%);fill-opacity:1;" d="M 263.164062 233.359375 L 257.84375 299.753906 L 274.097656 308.28125 L 287.3125 305.976562 L 270.824219 285.707031 Z M 348.703125 229.675781 C 348.703125 229.675781 370.691406 281.355469 360.945312 299.683594 L 353.4375 298.261719 Z M 348.703125 229.675781 "/>
</g>
<linearGradient id="linear16" gradientUnits="userSpaceOnUse" x1="0.99032" y1="-1.63287" x2="1.9903" y2="-1.63287" gradientTransform="matrix(46.359375,0,0,21.773438,283.730469,312.207031)">
<stop offset="0" style="stop-color:rgb(92.54902%,76.862745%,84.313725%);stop-opacity:1;"/>
<stop offset="0.42" style="stop-color:rgb(93.72549%,83.137255%,81.960784%);stop-opacity:1;"/>
<stop offset="1" style="stop-color:rgb(94.901961%,91.764706%,78.823529%);stop-opacity:1;"/>
</linearGradient>
<linearGradient id="linear17" gradientUnits="userSpaceOnUse" x1="1.24306" y1="-0.84564" x2="2.24306" y2="-0.84564" gradientTransform="matrix(36.832031,0,0,14.542969,349.933594,299.773438)">
<stop offset="0" style="stop-color:rgb(92.54902%,76.862745%,84.313725%);stop-opacity:1;"/>
<stop offset="0.42" style="stop-color:rgb(93.72549%,83.137255%,81.960784%);stop-opacity:1;"/>
<stop offset="1" style="stop-color:rgb(94.901961%,91.764706%,78.823529%);stop-opacity:1;"/>
</linearGradient>
<linearGradient id="linear18" gradientUnits="userSpaceOnUse" x1="1.2889" y1="1.0036" x2="0.2406" y2="1.53095" gradientTransform="matrix(191.542969,0,0,144.921875,394.132812,125.277344)">
<stop offset="0" style="stop-color:rgb(21.176471%,16.078431%,34.509804%);stop-opacity:0.501961;"/>
<stop offset="1" style="stop-color:rgb(20.392157%,19.215686%,23.921569%);stop-opacity:0;"/>
</linearGradient>
<linearGradient id="linear19" gradientUnits="userSpaceOnUse" x1="39.90942" y1="-342.251862" x2="38.743599" y2="-342.683167" gradientTransform="matrix(1.121094,0,0,1.171875,321.796875,477.777344)">
<stop offset="0" style="stop-color:rgb(0%,0%,0%);stop-opacity:1;"/>
<stop offset="0.99" style="stop-color:rgb(0%,0%,0%);stop-opacity:0;"/>
</linearGradient>
</defs>
<g id="surface1">
<path style=" stroke:none;fill-rule:nonzero;fill:rgb(93.725491%,94.509804%,96.862745%);fill-opacity:1;" d="M 715.921875 113.257812 C 690.171875 85.765625 670.238281 52.945312 639.460938 30.507812 C 591.117188 -4.808594 521.539062 -8.253906 465.011719 13.933594 C 408.480469 36.121094 364.445312 80.839844 335.421875 131.476562 C 320.152344 158.121094 308.160156 187.183594 285.789062 208.953125 C 266.875 227.347656 242.019531 239.082031 218.449219 251.867188 C 180.449219 272.417969 143.855469 297.25 119.265625 331.324219 C 94.675781 365.398438 83.683594 410.152344 99.402344 448.554688 C 110 474.464844 131.351562 495.082031 153.226562 513.746094 C 178.964844 535.695312 206.628906 556.246094 238.558594 569.320312 C 278.53125 585.589844 322.902344 589.089844 366.417969 590.746094 C 443.558594 593.667969 520.828125 591.484375 597.640625 584.207031 C 660.542969 578.257812 725.351562 568.101562 777.976562 535.226562 C 851.699219 489.1875 889.710938 404.835938 898.269531 322.117188 C 901.75 289.035156 900.871094 254.65625 887.261719 223.960938 C 854.71875 150.535156 766.914062 167.710938 715.921875 113.257812 Z M 715.921875 113.257812 "/>
<path style=" stroke:none;fill-rule:nonzero;fill:rgb(24.705882%,23.921569%,33.725491%);fill-opacity:1;" d="M 218.941406 248.511719 C 218.941406 248.511719 198.5625 244.890625 192.851562 259.15625 C 187.140625 273.425781 192.851562 322.695312 192.851562 322.695312 L 268.894531 377.0625 Z M 218.941406 248.511719 "/>
<path style=" stroke:none;fill-rule:nonzero;fill:rgb(16.862746%,81.568629%,81.568629%);fill-opacity:1;" d="M 314.574219 466.386719 L 284.421875 474.992188 C 280.042969 476.234375 275.449219 473.824219 274.144531 469.605469 C 272.859375 465.382812 275.355469 460.953125 279.730469 459.695312 L 309.839844 451.082031 C 314.214844 449.839844 318.8125 452.246094 320.117188 456.460938 C 321.417969 460.675781 318.941406 465.113281 314.574219 466.386719 Z M 314.574219 466.386719 "/>
<path style=" stroke:none;fill-rule:nonzero;fill:rgb(14.509805%,13.725491%,22.745098%);fill-opacity:1;" d="M 326.601562 485.144531 C 326.601562 477.683594 320.554688 471.636719 313.097656 471.636719 C 305.636719 471.636719 299.589844 477.683594 299.589844 485.144531 C 299.589844 492.605469 305.636719 498.65625 313.097656 498.65625 C 320.554688 498.65625 326.601562 492.605469 326.601562 485.144531 Z M 326.601562 485.144531 "/>
<path style=" stroke:none;fill-rule:nonzero;fill:rgb(24.705882%,23.921569%,33.725491%);fill-opacity:1;" d="M 318.007812 488.214844 C 318.007812 484.484375 314.984375 481.460938 311.253906 481.460938 C 307.527344 481.460938 304.503906 484.484375 304.503906 488.214844 C 304.503906 491.945312 307.527344 494.972656 311.253906 494.972656 C 314.984375 494.972656 318.007812 491.945312 318.007812 488.214844 Z M 318.007812 488.214844 "/>
<path style=" stroke:none;fill-rule:nonzero;fill:rgb(14.509805%,13.725491%,22.745098%);fill-opacity:1;" d="M 271.351562 471.636719 C 271.351562 464.171875 265.304688 458.125 257.84375 458.125 C 250.386719 458.125 244.339844 464.171875 244.339844 471.636719 C 244.339844 479.097656 250.386719 485.144531 257.84375 485.144531 C 265.304688 485.144531 271.351562 479.097656 271.351562 471.636719 Z M 271.351562 471.636719 "/>
<path style=" stroke:none;fill-rule:nonzero;fill:url(#linear0);" d="M 262.753906 472.25 C 262.753906 475.980469 259.730469 479.003906 256.003906 479.003906 C 252.273438 479.003906 249.25 475.980469 249.25 472.25 C 249.25 468.519531 252.273438 465.492188 256.003906 465.492188 C 259.730469 465.492188 262.753906 468.519531 262.753906 472.25 Z M 262.753906 472.25 "/>
<path style=" stroke:none;fill-rule:nonzero;fill:rgb(14.509805%,13.725491%,22.745098%);fill-opacity:1;" d="M 267.667969 490.058594 C 267.667969 482.597656 261.621094 476.546875 254.160156 476.546875 C 246.703125 476.546875 240.65625 482.597656 240.65625 490.058594 C 240.65625 497.519531 246.703125 503.570312 254.160156 503.570312 C 261.621094 503.570312 267.667969 497.519531 267.667969 490.058594 Z M 267.667969 490.058594 "/>
<path style=" stroke:none;fill-rule:nonzero;fill:rgb(24.705882%,23.921569%,33.725491%);fill-opacity:1;" d="M 265.210938 490.671875 C 265.210938 494.402344 262.1875 497.425781 258.457031 497.425781 C 254.730469 497.425781 251.707031 494.402344 251.707031 490.671875 C 251.707031 486.941406 254.730469 483.917969 258.457031 483.917969 C 262.1875 483.917969 265.210938 486.941406 265.210938 490.671875 Z M 265.210938 490.671875 "/>
<path style=" stroke:none;fill-rule:nonzero;fill:rgb(16.862746%,81.568629%,81.568629%);fill-opacity:1;" d="M 315.65625 480.078125 L 253.300781 467.738281 C 248.910156 466.859375 246.074219 462.667969 246.953125 458.359375 C 247.851562 454.0625 252.121094 451.28125 256.511719 452.136719 L 318.871094 464.453125 C 323.257812 465.335938 326.09375 469.527344 325.214844 473.832031 C 324.328125 478.140625 320.054688 480.933594 315.65625 480.078125 Z M 315.65625 480.078125 "/>
<path style=" stroke:none;fill-rule:nonzero;fill:rgb(16.862746%,81.568629%,81.568629%);fill-opacity:1;" d="M 277.488281 380.746094 L 294.679688 380.746094 L 294.679688 453.210938 C 294.679688 457.960938 290.832031 461.808594 286.089844 461.808594 C 281.34375 461.808594 277.496094 457.957031 277.5 453.210938 L 277.5 380.746094 Z M 277.488281 380.746094 "/>
<path style=" stroke:none;fill-rule:nonzero;fill:rgb(16.862746%,81.568629%,81.568629%);fill-opacity:1;" d="M 283.859375 474.960938 L 253.730469 483.589844 C 249.351562 484.835938 244.75 482.421875 243.449219 478.199219 C 242.164062 473.972656 244.660156 469.539062 249.03125 468.28125 L 279.160156 459.679688 C 283.535156 458.4375 288.128906 460.84375 289.433594 465.058594 C 290.710938 469.277344 288.21875 473.699219 283.859375 474.960938 Z M 283.859375 474.960938 "/>
<path style=" stroke:none;fill-rule:nonzero;fill:url(#linear1);" d="M 289.769531 474.410156 L 285.929688 475.085938 C 284.765625 475.289062 283.582031 475.359375 282.402344 475.296875 L 284.003906 475.019531 C 285.066406 474.839844 286.097656 474.53125 287.082031 474.089844 Z M 289.769531 474.410156 "/>
<path style=" stroke:none;fill-rule:nonzero;fill:url(#linear2);" d="M 320.464844 457.800781 C 320.46875 459.699219 319.835938 461.542969 318.671875 463.039062 L 293.453125 457.695312 C 294.089844 456.78125 294.546875 455.753906 294.800781 454.671875 L 310.335938 449.851562 C 312.359375 449.242188 314.542969 449.5 316.367188 450.5625 C 318.210938 451.628906 319.574219 453.417969 320.15625 455.535156 C 320.355469 456.273438 320.460938 457.035156 320.464844 457.800781 Z M 320.464844 457.800781 "/>
<use xlink:href="#surface5" mask="url(#mask0)"/>
<use xlink:href="#surface8" mask="url(#mask1)"/>
<path style=" stroke:none;fill-rule:nonzero;fill:rgb(0%,0%,0%);fill-opacity:1;" d="M 324.148438 476.546875 C 323.488281 477.511719 322.65625 478.347656 321.691406 479.003906 C 322.519531 478.195312 323.339844 477.375 324.148438 476.546875 Z M 324.148438 476.546875 "/>
<path style=" stroke:none;fill-rule:nonzero;fill:url(#linear5);" d="M 277.859375 455.125 C 278.203125 456.570312 278.921875 457.898438 279.945312 458.972656 C 279.6875 459.019531 279.421875 459.082031 279.160156 459.15625 L 253.042969 466.722656 C 249.023438 465.722656 246.378906 461.976562 246.847656 457.945312 C 247.316406 453.917969 250.753906 450.84375 254.898438 450.753906 C 255.453125 450.757812 256.007812 450.8125 256.554688 450.917969 Z M 277.859375 455.125 "/>
<path style=" stroke:none;fill-rule:nonzero;fill:rgb(31.37255%,19.215687%,39.215687%);fill-opacity:1;" d="M 318.007812 109.8125 C 318.007812 109.8125 317.667969 84.257812 297.042969 86.460938 C 276.414062 88.664062 278 80.203125 269.1875 81.132812 C 260.378906 82.0625 250.144531 90.695312 253.082031 101.359375 C 256.023438 112.023438 245.308594 114.40625 238.269531 122.496094 C 231.230469 130.585938 239.925781 137.207031 251.78125 145.117188 C 263.640625 153.027344 251.046875 150.976562 258.074219 163.484375 C 265.105469 175.988281 288.902344 160.015625 288.902344 160.015625 Z M 318.007812 109.8125 "/>
<path style=" stroke:none;fill-rule:nonzero;fill:rgb(16.862746%,81.568629%,81.568629%);fill-opacity:1;" d="M 150.609375 533.785156 L 165.011719 534.273438 L 165.011719 419.136719 C 165.011719 419.136719 165.738281 389.363281 193.808594 386.375 C 221.878906 383.390625 476.449219 346.5 476.449219 346.5 C 476.449219 346.5 486.539062 345.429688 492.351562 364.800781 C 498.164062 384.171875 503.820312 460.339844 503.820312 460.339844 L 581.957031 470.875 C 581.957031 470.875 584.019531 336.324219 555.804688 328.898438 C 527.585938 321.472656 158.574219 359.308594 158.574219 359.308594 C 158.574219 359.308594 131.203125 502.214844 150.609375 533.785156 Z M 150.609375 533.785156 "/>
<use xlink:href="#surface11" mask="url(#mask2)"/>
<path style=" stroke:none;fill-rule:nonzero;fill:rgb(16.862746%,81.568629%,81.568629%);fill-opacity:1;" d="M 76.125 373.113281 C 76.125 373.113281 83.179688 334.109375 132.78125 323.886719 L 482.9375 283.792969 C 482.9375 283.792969 517.3125 282.371094 533.039062 291.882812 C 548.765625 301.398438 571.210938 309.285156 580.414062 352.339844 C 589.617188 395.398438 591.816406 468.949219 591.816406 468.949219 L 583.109375 470.300781 C 583.109375 470.300781 570.402344 337.113281 556.941406 328.679688 C 543.480469 320.25 179.503906 371.980469 179.503906 371.980469 C 179.503906 371.980469 154.257812 377.003906 152.058594 414.394531 C 149.863281 451.785156 152.058594 533.046875 152.058594 533.046875 L 76.125 502.410156 Z M 76.125 373.113281 "/>
<use xlink:href="#surface14" mask="url(#mask3)"/>
<path style=" stroke:none;fill-rule:nonzero;fill:rgb(16.862746%,81.568629%,81.568629%);fill-opacity:1;" d="M 327.832031 318.574219 L 328.53125 321.171875 C 328.53125 321.171875 349.257812 333.664062 349.128906 334.070312 C 348.996094 334.472656 435.105469 314.121094 435.105469 314.121094 L 437.109375 308.28125 Z M 327.832031 318.574219 "/>
<path style=" stroke:none;fill-rule:nonzero;fill:url(#linear8);" d="M 327.832031 318.574219 L 328.53125 321.171875 C 328.53125 321.171875 349.257812 333.664062 349.128906 334.070312 C 348.996094 334.472656 435.105469 314.121094 435.105469 314.121094 L 437.109375 308.28125 Z M 327.832031 318.574219 "/>
<path style=" stroke:none;fill-rule:nonzero;fill:rgb(16.862746%,81.568629%,81.568629%);fill-opacity:1;" d="M 329.058594 318.554688 L 405.316406 302.140625 L 437.109375 308.347656 L 350.472656 329.160156 Z M 329.058594 318.554688 "/>
<path style=" stroke:none;fill-rule:nonzero;fill:url(#linear9);" d="M 329.058594 318.554688 L 405.316406 302.140625 L 437.109375 308.347656 L 350.472656 329.160156 Z M 329.058594 318.554688 "/>
<path style=" stroke:none;fill-rule:nonzero;fill:rgb(16.862746%,81.568629%,81.568629%);fill-opacity:1;" d="M 304.296875 332.210938 L 322.046875 332.839844 C 322.046875 332.839844 326.554688 333.121094 327.71875 329.503906 C 328.886719 325.886719 320.488281 318.253906 319.589844 318.109375 C 318.6875 317.964844 295.328125 324.523438 298.695312 331.074219 Z M 304.296875 332.210938 "/>
<path style=" stroke:none;fill-rule:nonzero;fill:url(#linear10);" d="M 304.296875 332.210938 L 322.046875 332.839844 C 322.046875 332.839844 326.554688 333.121094 327.71875 329.503906 C 328.886719 325.886719 320.488281 318.253906 319.589844 318.109375 C 318.6875 317.964844 295.328125 324.523438 298.695312 331.074219 Z M 304.296875 332.210938 "/>
<path style=" stroke:none;fill-rule:nonzero;fill:rgb(16.862746%,81.568629%,81.568629%);fill-opacity:1;" d="M 97 511.007812 L 88.332031 537.628906 C 63.195312 546.660156 41.824219 537.628906 41.824219 537.628906 L 35.605469 509.710938 C 35.605469 509.710938 66.960938 520.222656 97 511.007812 Z M 97 511.007812 "/>
<path style=" stroke:none;fill-rule:nonzero;fill:url(#linear11);" d="M 97 511.007812 L 88.332031 537.628906 C 63.195312 546.660156 41.824219 537.628906 41.824219 537.628906 L 35.605469 509.710938 C 35.605469 509.710938 66.960938 520.222656 97 511.007812 Z M 97 511.007812 "/>
<path style=" stroke:none;fill-rule:nonzero;fill:rgb(16.862746%,81.568629%,81.568629%);fill-opacity:1;" d="M 106.820312 486.375 L 104.015625 507.183594 L 96.914062 510.878906 C 66.648438 519.992188 35.011719 509.601562 35.011719 509.601562 L 29.554688 505.570312 L 27.011719 486.375 Z M 106.820312 486.375 "/>
<path style=" stroke:none;fill-rule:nonzero;fill:url(#linear12);" d="M 106.820312 486.375 L 104.015625 507.183594 L 96.914062 510.878906 C 66.648438 519.992188 35.011719 509.601562 35.011719 509.601562 L 29.554688 505.570312 L 27.011719 486.375 Z M 106.820312 486.375 "/>
<path style=" stroke:none;fill-rule:nonzero;fill:rgb(16.862746%,81.568629%,81.568629%);fill-opacity:1;" d="M 106.820312 485.144531 C 106.820312 481.074219 88.957031 477.777344 66.917969 477.777344 C 44.878906 477.777344 27.011719 481.074219 27.011719 485.144531 C 27.011719 489.214844 44.878906 492.515625 66.917969 492.515625 C 88.957031 492.515625 106.820312 489.214844 106.820312 485.144531 Z M 106.820312 485.144531 "/>
<path style=" stroke:none;fill-rule:nonzero;fill:url(#linear13);" d="M 106.820312 485.144531 C 106.820312 481.074219 88.957031 477.777344 66.917969 477.777344 C 44.878906 477.777344 27.011719 481.074219 27.011719 485.144531 C 27.011719 489.214844 44.878906 492.515625 66.917969 492.515625 C 88.957031 492.515625 106.820312 489.214844 106.820312 485.144531 Z M 106.820312 485.144531 "/>
<path style=" stroke:none;fill-rule:nonzero;fill:rgb(16.862746%,81.568629%,81.568629%);fill-opacity:1;" d="M 48.671875 325.515625 C 44.765625 323.652344 40.566406 322.25 37.183594 319.53125 C 30.375 314.003906 28.648438 304.488281 26.515625 295.953125 C 24.382812 287.414062 20.257812 278.03125 11.851562 275.582031 C 8.703125 274.675781 5.015625 275.035156 2.621094 277.289062 C 0.101562 279.664062 -0.410156 283.5625 0.28125 287.007812 C 0.96875 290.453125 2.648438 293.539062 3.945312 296.800781 C 6.972656 304.390625 7.894531 312.65625 6.613281 320.722656 C 5.550781 327.34375 3.011719 334.050781 4.640625 340.539062 C 7.40625 351.550781 21.179688 358.003906 21.5625 369.351562 C 21.820312 377.003906 15.5625 384.089844 16.980469 391.625 C 18.027344 397.199219 23.125 401.546875 23.402344 407.210938 C 23.710938 413.636719 17.679688 419.070312 17.96875 425.496094 C 18.261719 431.917969 24.632812 436.210938 28.792969 441.261719 C 32.285156 445.515625 34.355469 450.75 34.71875 456.238281 C 34.9375 459.667969 34.5 463.21875 35.613281 466.464844 C 36.421875 468.839844 38.042969 470.855469 39.300781 472.996094 C 40.6875 475.304688 41.734375 477.804688 43.402344 479.941406 C 47.679688 485.386719 54.855469 487.652344 61.480469 485.652344 C 62.773438 477.117188 61.644531 468.410156 62 459.78125 C 62.707031 443.066406 68.988281 426.222656 64.96875 409.996094 C 63.492188 404.046875 60.65625 398.398438 60.152344 392.292969 C 59.707031 386.839844 61.148438 381.4375 62.15625 376.058594 C 64.230469 364.953125 64.199219 353.46875 63.347656 342.238281 C 62.675781 333.324219 56.449219 329.21875 48.671875 325.515625 Z M 48.671875 325.515625 "/>
<path style=" stroke:none;fill-rule:nonzero;fill:rgb(16.862746%,81.568629%,81.568629%);fill-opacity:1;" d="M 73.367188 369.40625 C 73.300781 376.851562 75 384.550781 72.613281 391.617188 C 70.808594 396.976562 66.839844 401.363281 64.792969 406.632812 C 60.0625 418.789062 66.425781 432.425781 65.125 445.40625 C 64.585938 450.753906 62.75 455.890625 61.589844 461.144531 C 60.152344 467.792969 59.796875 474.628906 60.546875 481.390625 C 60.386719 483.9375 62.128906 486.210938 64.628906 486.722656 C 68.628906 488.246094 72.773438 489.363281 77 490.058594 C 75.570312 482.1875 77.074219 474.0625 81.226562 467.226562 C 87.703125 456.625 100.285156 449.484375 102.628906 437.308594 C 104.214844 429.0625 100.523438 420.695312 100.785156 412.308594 C 100.972656 406.722656 102.898438 401.335938 106.289062 396.894531 C 109.332031 392.933594 113.457031 389.867188 116.292969 385.753906 C 123.101562 375.847656 120.976562 362.605469 118.953125 350.757812 C 116.925781 338.910156 115.753906 325.277344 123.753906 316.296875 C 126.285156 313.460938 129.585938 311.332031 131.878906 308.300781 C 136.992188 301.539062 135.699219 291.125 129.753906 285.082031 C 123.8125 279.039062 114.242188 277.371094 106.160156 280.027344 C 102.75 281.03125 99.738281 283.074219 97.550781 285.875 C 93.46875 291.664062 95.101562 299.574219 96.832031 306.457031 C 98.34375 312.433594 99.558594 319.332031 97.496094 325.359375 C 95.953125 329.84375 92.039062 332.273438 88.714844 335.394531 C 79.203125 344.183594 73.660156 356.457031 73.367188 369.40625 Z M 73.367188 369.40625 "/>
<path style=" stroke:none;fill-rule:nonzero;fill:rgb(18.82353%,77.254903%,60.784316%);fill-opacity:1;" d="M 65.152344 435.429688 C 64 443.527344 62.335938 451.691406 61.996094 459.8125 L 61.996094 460.628906 C 61.976562 460.828125 61.933594 461.027344 61.859375 461.214844 C 60.421875 467.871094 60.0625 474.714844 60.796875 481.484375 C 60.839844 482.578125 61.117188 483.652344 61.605469 484.632812 C 61.566406 484.976562 61.519531 485.3125 61.46875 485.652344 C 54.839844 487.652344 47.664062 485.386719 43.382812 479.941406 C 41.761719 477.800781 40.667969 475.304688 39.28125 472.996094 C 37.984375 470.847656 36.402344 468.832031 35.589844 466.464844 C 34.480469 463.199219 34.917969 459.664062 34.699219 456.238281 C 34.335938 450.746094 32.261719 445.507812 28.769531 441.257812 C 24.609375 436.238281 18.226562 432.027344 17.945312 425.496094 C 17.660156 418.964844 23.683594 413.636719 23.375 407.210938 C 23.101562 401.546875 18 397.195312 16.957031 391.621094 C 15.535156 384.085938 21.820312 377.003906 21.535156 369.34375 C 21.15625 358 7.375 351.542969 4.609375 340.53125 C 2.988281 334.042969 5.519531 327.332031 6.582031 320.714844 C 7.871094 312.652344 6.960938 304.394531 3.945312 296.8125 C 2.648438 293.546875 0.96875 290.46875 0.28125 287.015625 C -0.410156 283.566406 0.101562 279.671875 2.625 277.285156 C 5.058594 275.035156 8.707031 274.675781 11.851562 275.582031 C 20.273438 278.03125 24.382812 287.449219 26.523438 295.988281 C 28.664062 304.527344 30.382812 314.035156 37.195312 319.570312 C 40.5625 322.304688 44.777344 323.691406 48.6875 325.554688 C 56.472656 329.257812 62.703125 333.363281 63.367188 342.195312 C 64.175781 353.425781 64.25 364.914062 62.175781 376.023438 C 61.167969 381.402344 59.742188 386.804688 60.171875 392.257812 C 60.601562 397.710938 62.960938 402.871094 64.503906 408.160156 C 64.671875 408.753906 64.84375 409.359375 64.988281 409.960938 C 67.035156 418.363281 66.375 426.859375 65.152344 435.429688 Z M 65.152344 435.429688 "/>
<path style=" stroke:none;fill-rule:nonzero;fill:url(#linear14);" d="M 61.046875 483.917969 C 60.675781 482.9375 60.464844 481.90625 60.429688 480.859375 C 59.902344 474.277344 60.164062 467.621094 61.210938 461.152344 C 61.238281 460.960938 61.273438 460.769531 61.308594 460.582031 C 61.097656 468.375 61.769531 476.234375 61.046875 483.917969 Z M 61.046875 483.917969 "/>
<path style=" stroke:none;fill-rule:nonzero;fill:rgb(18.82353%,77.254903%,60.784316%);fill-opacity:1;" d="M 131.859375 308.300781 C 129.5625 311.332031 126.257812 313.460938 123.722656 316.296875 C 115.710938 325.269531 116.886719 338.910156 118.914062 350.757812 C 120.941406 362.605469 123.070312 375.847656 116.25 385.757812 C 113.414062 389.835938 109.28125 392.933594 106.230469 396.894531 C 102.835938 401.332031 100.90625 406.722656 100.71875 412.308594 C 100.457031 420.695312 104.152344 429.0625 102.566406 437.308594 C 100.21875 449.484375 87.617188 456.640625 81.132812 467.226562 C 76.988281 474.066406 75.492188 482.191406 76.929688 490.058594 C 72.707031 489.363281 68.566406 488.246094 64.570312 486.722656 C 63.480469 486.398438 62.488281 485.800781 61.695312 484.984375 C 61.582031 484.851562 61.480469 484.710938 61.390625 484.5625 C 60.882812 483.589844 60.589844 482.523438 60.53125 481.429688 C 59.796875 474.667969 60.164062 467.828125 61.621094 461.183594 C 61.660156 460.988281 61.710938 460.792969 61.757812 460.597656 C 62.921875 455.550781 64.636719 450.597656 65.160156 445.445312 C 65.4375 442.105469 65.375 438.742188 64.964844 435.414062 C 66.199219 426.855469 66.863281 418.367188 64.777344 410.03125 C 64.628906 409.429688 64.457031 408.824219 64.285156 408.230469 C 64.441406 407.707031 64.621094 407.183594 64.824219 406.671875 C 66.878906 401.402344 70.851562 397.019531 72.660156 391.660156 C 75.039062 384.589844 73.347656 376.894531 73.410156 369.449219 C 73.519531 356.585938 79.332031 344.171875 88.671875 335.394531 C 92 332.273438 95.917969 329.84375 97.464844 325.359375 C 99.53125 319.332031 98.28125 312.433594 96.800781 306.457031 C 95.058594 299.574219 93.40625 291.664062 97.523438 285.875 C 99.566406 283.003906 102.789062 281.136719 106.140625 280.027344 C 114.203125 277.371094 123.832031 279.039062 129.777344 285.082031 C 135.722656 291.125 136.980469 301.578125 131.859375 308.300781 Z M 131.859375 308.300781 "/>
<path style=" stroke:none;fill-rule:nonzero;fill:rgb(16.862746%,81.568629%,81.568629%);fill-opacity:1;" d="M 276.964844 179.5 C 276.964844 179.5 242.8125 184.78125 227.011719 222.457031 C 211.214844 260.136719 219.429688 306.816406 219.707031 310.921875 C 219.980469 315.03125 268.117188 332.847656 281.875 332.847656 C 295.636719 332.847656 298.503906 319.054688 298.503906 319.054688 L 274.1875 308.699219 L 348.066406 300.164062 L 361.332031 300.164062 L 354.027344 312.484375 C 354.027344 312.484375 368.445312 313.996094 378.082031 314.339844 C 387.71875 314.683594 394.261719 295.621094 395.34375 286.140625 C 396.421875 276.664062 352.777344 193.460938 346.257812 188.535156 C 339.738281 183.605469 322.046875 171.566406 276.964844 179.5 Z M 276.964844 179.5 "/>
<path style=" stroke:none;fill-rule:nonzero;fill:url(#linear15);" d="M 317.261719 109.035156 C 317.261719 109.035156 323.441406 112.511719 322.886719 123.757812 C 322.328125 135 318.84375 151.921875 315.332031 156.304688 C 311.8125 160.6875 299.515625 162.40625 299.515625 162.40625 C 299.515625 162.40625 306.226562 178.34375 311.21875 182.457031 C 316.210938 186.570312 306.199219 201.726562 296.464844 196.753906 C 286.730469 191.78125 275.445312 179.292969 275.445312 179.292969 C 275.445312 179.292969 283.5625 164.253906 280.816406 156.335938 C 278.074219 148.421875 267.589844 120.640625 275.445312 113.050781 C 283.296875 105.460938 300.230469 94.585938 317.261719 109.035156 Z M 317.261719 109.035156 "/>
<use xlink:href="#surface17" mask="url(#mask4)"/>
<path style=" stroke:none;fill-rule:nonzero;fill:url(#linear16);" d="M 289.179688 316.933594 C 289.179688 316.933594 280.875 324.027344 284.582031 329.546875 C 288.289062 335.0625 292.714844 334.902344 296.40625 332.4375 C 300.097656 329.96875 307.347656 324.113281 315.984375 326.800781 C 324.625 329.488281 326.722656 331.199219 326.722656 331.199219 C 326.722656 331.199219 331.269531 328.355469 330.089844 325.5 C 328.910156 322.648438 319.875 313.402344 317.257812 312.207031 C 314.640625 311.007812 303.773438 314.6875 303.773438 314.6875 C 303.773438 314.6875 295.789062 312.53125 289.179688 316.9375 Z M 289.179688 316.933594 "/>
<path style=" stroke:none;fill-rule:nonzero;fill:url(#linear17);" d="M 362.445312 301.648438 C 362.445312 301.648438 354.605469 302.578125 352.625 307.734375 C 350.644531 312.890625 349.933594 313.519531 349.933594 313.519531 C 349.933594 313.519531 354.359375 314.367188 356.199219 311.96875 C 358.042969 309.566406 359.957031 310.578125 359.957031 310.578125 L 359.40625 313.65625 C 359.40625 313.65625 371.4375 315.46875 376.871094 313.519531 C 382.304688 311.570312 384.640625 309.28125 384.640625 309.28125 L 386.765625 304.070312 C 386.765625 304.070312 381.632812 300.351562 377.765625 299.773438 C 373.894531 299.195312 362.445312 301.648438 362.445312 301.648438 Z M 362.445312 301.648438 "/>
<path style=" stroke:none;fill-rule:nonzero;fill:rgb(14.509805%,13.725491%,22.745098%);fill-opacity:1;" d="M 403.824219 356.183594 C 403.824219 356.183594 430.757812 376.679688 428.363281 404.402344 C 425.96875 432.125 422.453125 473.289062 422.453125 473.289062 C 422.453125 473.289062 411.589844 477.859375 404.394531 473.289062 C 397.195312 468.714844 392.839844 406.167969 389.273438 400.191406 C 385.707031 394.21875 364.257812 367.289062 341.335938 364.96875 Z M 403.824219 356.183594 "/>
<path style=" stroke:none;fill-rule:nonzero;fill:rgb(24.705882%,23.921569%,33.725491%);fill-opacity:1;" d="M 268.894531 375.90625 C 268.894531 375.90625 281.71875 388.058594 304.578125 391.875 C 327.4375 395.691406 338.09375 398.875 345.082031 418.410156 C 352.066406 437.945312 358.769531 479.988281 360.960938 484.6875 C 363.15625 489.386719 372.480469 486.988281 372.480469 486.988281 C 372.480469 486.988281 377.757812 480.976562 377.757812 447.546875 C 377.757812 400.941406 381.015625 391.386719 369.269531 379.679688 C 357.519531 367.972656 346.832031 364.78125 346.832031 364.78125 Z M 268.894531 375.90625 "/>
<path style=" stroke:none;fill-rule:nonzero;fill:rgb(14.509805%,13.725491%,22.745098%);fill-opacity:1;" d="M 360.980469 486.375 L 363.21875 503.808594 L 367.402344 503.808594 C 367.402344 503.808594 394.351562 505.269531 395.195312 504.640625 C 396.039062 504.007812 393.898438 490.832031 383.6875 491.203125 C 373.476562 491.574219 372.808594 488.71875 372.808594 488.71875 Z M 406.410156 474.28125 L 410.730469 491.285156 L 457.925781 484.886719 C 457.925781 484.886719 459.585938 473.714844 444.636719 474.824219 C 440.691406 475.113281 437.75 477.851562 433.007812 477.875 C 428.265625 477.902344 423.722656 475.980469 421.332031 472.863281 Z M 406.410156 474.28125 "/>
<path style=" stroke:none;fill-rule:nonzero;fill:rgb(16.862746%,81.568629%,81.568629%);fill-opacity:1;" d="M 567.015625 260.796875 L 392.367188 270.195312 C 388.144531 270.417969 384.539062 267.164062 384.3125 262.917969 L 384.3125 138.140625 C 384.316406 133.105469 388.324219 128.992188 393.332031 128.886719 L 567.269531 125.277344 C 569.503906 125.234375 571.660156 126.082031 573.269531 127.632812 C 574.878906 129.191406 575.808594 131.320312 575.851562 133.5625 L 575.851562 251.433594 C 575.847656 256.417969 571.96875 260.527344 567.015625 260.796875 Z M 567.015625 260.796875 "/>
<path style=" stroke:none;fill-rule:nonzero;fill:rgb(16.862746%,81.568629%,81.568629%);fill-opacity:1;" d="M 576.839844 260.796875 L 402.179688 270.199219 C 397.957031 270.414062 394.355469 267.152344 394.132812 262.910156 L 394.132812 138.140625 C 394.128906 133.101562 398.136719 128.988281 403.148438 128.886719 L 577.109375 125.277344 C 581.746094 125.191406 585.578125 128.894531 585.675781 133.554688 L 585.675781 251.433594 C 585.667969 256.417969 581.789062 260.527344 576.839844 260.796875 Z M 576.839844 260.796875 "/>
<path style=" stroke:none;fill-rule:nonzero;fill:url(#linear18);" d="M 576.839844 260.796875 L 402.179688 270.199219 C 397.957031 270.414062 394.355469 267.152344 394.132812 262.910156 L 394.132812 138.140625 C 394.128906 133.101562 398.136719 128.988281 403.148438 128.886719 L 577.109375 125.277344 C 581.746094 125.191406 585.578125 128.894531 585.675781 133.554688 L 585.675781 251.433594 C 585.667969 256.417969 581.789062 260.527344 576.839844 260.796875 Z M 576.839844 260.796875 "/>
<path style=" stroke:none;fill-rule:nonzero;fill:rgb(22.745098%,18.82353%,32.941177%);fill-opacity:1;" d="M 525.234375 308.453125 L 480.667969 313.195312 C 480.667969 313.195312 467.097656 310.457031 467.832031 308.453125 C 468.566406 306.445312 482.757812 304.515625 482.757812 304.515625 L 482.757812 223.695312 C 482.632812 223.515625 480.765625 221.132812 475.648438 219.617188 C 474.660156 219.324219 473.652344 219.089844 472.628906 218.917969 C 471.753906 218.789062 470.902344 218.53125 470.101562 218.152344 C 467.058594 216.578125 470.421875 213.839844 475.144531 213.71875 C 475.882812 213.691406 476.625 213.734375 477.355469 213.847656 L 511.628906 213.847656 C 511.628906 213.847656 524.605469 217.5 525.234375 235.722656 C 525.859375 253.949219 525.234375 308.453125 525.234375 308.453125 Z M 525.234375 308.453125 "/>
<path style=" stroke:none;fill-rule:nonzero;fill:rgb(31.764707%,27.450982%,41.960785%);fill-opacity:1;" d="M 488.675781 308.621094 L 480.476562 313.195312 C 480.476562 313.195312 467.109375 310.457031 467.832031 308.449219 C 468.554688 306.445312 482.558594 304.515625 482.558594 304.515625 L 482.558594 223.6875 C 482.390625 223.5 480.339844 221.355469 475.558594 219.609375 C 473.777344 218.976562 471.949219 218.484375 470.089844 218.144531 C 467.09375 216.570312 470.402344 213.832031 475.058594 213.710938 C 479.023438 214.257812 486.828125 218.65625 487.335938 221.167969 C 487.839844 223.679688 488.675781 308.621094 488.675781 308.621094 Z M 488.675781 308.621094 "/>
<path style=" stroke:none;fill-rule:nonzero;fill:url(#linear19);" d="M 322.917969 477.777344 C 321.835938 479.003906 321.335938 479.457031 321.972656 478.449219 C 322.304688 478.253906 322.621094 478.027344 322.917969 477.777344 Z M 322.917969 477.777344 "/>
</g>
</svg>
